<svg width="180" height="118" viewBox="0 0 180 118" fill="none" xmlns="http://www.w3.org/2000/svg">
<mask id="mask0_10_173" style="mask-type:luminance" maskUnits="userSpaceOnUse" x="47" y="0" width="86" height="80">
<path fill-rule="evenodd" clip-rule="evenodd" d="M47.101 0.857147H132.926V79.7179H47.101V0.857147Z" fill="white"/>
</mask>
<g mask="url(#mask0_10_173)">
<path d="M90.0137 79.7178C66.3517 79.7178 47.101 62.0293 47.101 40.2875C47.101 31.0976 50.6178 22.1506 57.0008 15.0964C57.1295 14.9594 57.3464 14.922 57.5158 15.0154C57.6852 15.1088 57.7529 15.3018 57.6784 15.4699C55.9234 19.3675 55.0357 23.4955 55.0357 27.748C55.0357 45.4677 70.7291 59.8875 90.0137 59.8875C109.298 59.8875 124.992 45.4677 124.992 27.748C124.992 23.5017 124.104 19.3675 122.349 15.4699C122.274 15.3018 122.349 15.1088 122.512 15.0154C122.681 14.922 122.898 14.9532 123.027 15.0964C129.41 22.1506 132.926 31.0976 132.926 40.2875C132.926 62.0293 113.676 79.7178 90.0137 79.7178ZM56.0386 17.425C50.7736 24.0309 47.9006 32.0627 47.9006 40.2875C47.9006 61.6246 66.7922 78.9832 90.0137 78.9832C113.235 78.9832 132.127 61.6246 132.127 40.2875C132.127 32.0565 129.254 24.0247 123.989 17.425C125.181 20.7435 125.791 24.2053 125.791 27.748C125.791 45.8786 109.739 60.6222 90.0137 60.6222C70.2886 60.6222 54.2362 45.8724 54.2362 27.748C54.2362 24.2053 54.8392 20.7435 56.0386 17.425Z" fill="#F6D6DE"/>
<path d="M90.0136 37.8656C80.8185 37.8656 72.0774 33.7999 66.6159 26.9884C66.5143 26.8577 66.5143 26.6834 66.6159 26.5526C72.0774 19.7412 80.8253 15.6755 90.0136 15.6755C99.202 15.6755 107.95 19.7412 113.411 26.5526C113.513 26.6834 113.513 26.8577 113.411 26.9884C107.95 33.7999 99.202 37.8656 90.0136 37.8656ZM67.4358 26.7705C72.755 33.2644 81.1709 37.1309 90.0136 37.1309C98.8564 37.1309 107.272 33.2644 112.591 26.7705C107.272 20.2766 98.8496 16.4102 90.0136 16.4102C81.1777 16.4102 72.755 20.2766 67.4358 26.7705Z" fill="#F6D6DE"/>
<path d="M90.0137 37.8656C83.3596 37.8656 77.9388 32.8908 77.9388 26.7705C77.9388 20.6502 83.3528 15.6755 90.0137 15.6755C96.6746 15.6755 102.089 20.6502 102.089 26.7705C102.089 32.8908 96.6746 37.8656 90.0137 37.8656ZM90.0137 16.4164C83.8001 16.4164 78.7384 21.0611 78.7384 26.7767C78.7384 32.4924 83.7933 37.1371 90.0137 37.1371C96.2341 37.1371 101.289 32.4924 101.289 26.7767C101.289 21.0611 96.2341 16.4164 90.0137 16.4164Z" fill="#F6D6DE"/>
<path d="M90.0137 30.6183C87.7099 30.6183 85.8329 28.8936 85.8329 26.7767C85.8329 24.6598 87.7099 22.9352 90.0137 22.9352C92.3176 22.9352 94.1945 24.6598 94.1945 26.7767C94.1945 28.8936 92.3176 30.6183 90.0137 30.6183ZM90.0137 23.6636C88.1503 23.6636 86.6325 25.0583 86.6325 26.7705C86.6325 28.4827 88.1503 29.8773 90.0137 29.8773C91.8771 29.8773 93.395 28.4827 93.395 26.7705C93.395 25.0583 91.8771 23.6636 90.0137 23.6636Z" fill="#F6D6DE"/>
<path d="M90.0137 42.3733C82.2416 42.3733 74.6456 39.9015 68.6285 35.4062C68.4591 35.2754 68.432 35.0451 68.5675 34.8894C68.703 34.7338 68.9605 34.7089 69.1299 34.8334C75.0115 39.2166 82.4245 41.6324 90.0137 41.6324C97.6029 41.6324 105.016 39.2166 110.897 34.8334C111.067 34.7026 111.318 34.7275 111.46 34.8894C111.595 35.0451 111.575 35.2754 111.399 35.4062C105.382 39.8953 97.7858 42.3733 90.0137 42.3733ZM111.148 18.7948C111.06 18.7948 110.972 18.7699 110.897 18.7138C105.016 14.3306 97.6029 11.9148 90.0137 11.9148C82.4245 11.9148 75.0115 14.3306 69.1299 18.7138C68.9605 18.8446 68.7098 18.8197 68.5675 18.6578C68.432 18.5021 68.4523 18.2718 68.6285 18.141C74.6456 13.6519 82.2416 11.1739 90.0137 11.1739C97.7858 11.1739 105.382 13.6457 111.399 18.141C111.568 18.2718 111.595 18.5021 111.46 18.6578C111.379 18.7449 111.263 18.7948 111.148 18.7948Z" fill="#F6D6DE"/>
<path d="M107.36 11.1988C107.259 11.1988 107.157 11.1615 107.076 11.093C106.92 10.9498 106.92 10.7194 107.076 10.5762L108.783 9.00721C108.939 8.86401 109.19 8.86401 109.346 9.00721C109.502 9.15041 109.502 9.38078 109.346 9.52398L107.638 11.093C107.557 11.1677 107.455 11.1988 107.354 11.1988H107.36ZM72.667 11.1988C72.5654 11.1988 72.4637 11.1615 72.3824 11.093L70.6749 9.52398C70.519 9.38078 70.519 9.15041 70.6749 9.00721C70.8307 8.86401 71.0814 8.86401 71.2373 9.00721L72.9448 10.5762C73.1007 10.7194 73.1007 10.9498 72.9448 11.093C72.8635 11.1677 72.7619 11.1988 72.6603 11.1988H72.667ZM78.6096 8.98853C78.4741 8.98853 78.3386 8.92004 78.264 8.80797L75.9602 5.14698C75.8518 4.97265 75.9128 4.74851 76.1093 4.64266C76.299 4.54304 76.5429 4.59908 76.6581 4.77964L78.962 8.44063C79.0704 8.61496 79.0094 8.8391 78.8129 8.94495C78.7519 8.97608 78.6842 8.99476 78.6164 8.99476L78.6096 8.98853ZM101.418 8.98853C101.35 8.98853 101.282 8.96985 101.221 8.93872C101.032 8.8391 100.964 8.61496 101.072 8.4344L103.376 4.77341C103.485 4.59908 103.728 4.53682 103.925 4.63644C104.115 4.73605 104.182 4.9602 104.074 5.14076L101.77 8.80175C101.696 8.92004 101.56 8.9823 101.425 8.9823L101.418 8.98853ZM95.6582 7.78688C95.6243 7.78688 95.5904 7.78688 95.5565 7.77443C95.3465 7.72462 95.2177 7.51915 95.2719 7.32614L96.7965 2.08993C96.8507 1.89692 97.0744 1.77862 97.2844 1.82843C97.4945 1.87824 97.6232 2.0837 97.569 2.27671L96.0444 7.51293C95.997 7.67481 95.8343 7.78688 95.6582 7.78688ZM84.3693 7.78688C84.1931 7.78688 84.0305 7.68103 83.983 7.51293L82.4584 2.27671C82.4042 2.0837 82.5262 1.87824 82.743 1.82843C82.9531 1.77862 83.1767 1.89069 83.2309 2.08993L84.7555 7.32614C84.8097 7.51915 84.6877 7.72462 84.4709 7.77443C84.437 7.78065 84.4031 7.78688 84.3693 7.78688ZM90.0137 7.40708C89.7901 7.40708 89.6139 7.2452 89.6139 7.03974V1.22449C89.6139 1.01903 89.7901 0.857147 90.0137 0.857147C90.2373 0.857147 90.4135 1.01903 90.4135 1.22449V7.03974C90.4135 7.2452 90.2373 7.40708 90.0137 7.40708Z" fill="#F6D6DE"/>
<path d="M90.0137 52.6901C89.7901 52.6901 89.6139 52.5282 89.6139 52.3228V46.5075C89.6139 46.302 89.7901 46.1402 90.0137 46.1402C90.2373 46.1402 90.4135 46.302 90.4135 46.5075V52.3228C90.4135 52.5282 90.2373 52.6901 90.0137 52.6901ZM82.8447 51.7313C82.8108 51.7313 82.7769 51.7313 82.743 51.7188C82.533 51.669 82.4042 51.4635 82.4584 51.2705L83.983 46.0343C84.0372 45.8413 84.2609 45.723 84.4709 45.7728C84.681 45.8226 84.8097 46.0281 84.7555 46.2211L83.2309 51.4573C83.1835 51.6192 83.0208 51.7313 82.8447 51.7313ZM97.1896 51.7313C97.0134 51.7313 96.8507 51.6254 96.8033 51.4573L95.2787 46.2211C95.2245 46.0281 95.3465 45.8226 95.5633 45.7728C95.7801 45.723 95.997 45.8351 96.0512 46.0343L97.5758 51.2705C97.63 51.4635 97.508 51.669 97.2912 51.7188C97.2573 51.725 97.2234 51.7313 97.1896 51.7313ZM76.3058 48.9544C76.238 48.9544 76.1702 48.9357 76.1093 48.9046C75.9195 48.805 75.8518 48.5808 75.9602 48.4003L78.264 44.7393C78.3725 44.5649 78.6164 44.5027 78.8129 44.6023C79.0026 44.7019 79.0704 44.9261 78.962 45.1066L76.6581 48.7676C76.5836 48.8859 76.4481 48.9482 76.3125 48.9482L76.3058 48.9544ZM103.722 48.9544C103.586 48.9544 103.451 48.8859 103.376 48.7738L101.072 45.1128C100.964 44.9385 101.025 44.7144 101.221 44.6085C101.411 44.5089 101.655 44.5649 101.77 44.7455L104.074 48.4065C104.182 48.5808 104.121 48.805 103.925 48.9108C103.864 48.9419 103.796 48.9606 103.728 48.9606L103.722 48.9544ZM109.075 44.6521C108.973 44.6521 108.871 44.6147 108.79 44.5463L107.083 42.9773C106.927 42.8341 106.927 42.6037 107.083 42.4605C107.238 42.3173 107.489 42.3173 107.645 42.4605L109.353 44.0295C109.508 44.1727 109.508 44.4031 109.353 44.5463C109.271 44.621 109.17 44.6521 109.068 44.6521H109.075ZM70.9595 44.6521C70.8578 44.6521 70.7562 44.6147 70.6749 44.5463C70.519 44.4031 70.519 44.1727 70.6749 44.0295L72.3824 42.4605C72.5383 42.3173 72.789 42.3173 72.9448 42.4605C73.1007 42.6037 73.1007 42.8341 72.9448 42.9773L71.2373 44.5463C71.156 44.621 71.0543 44.6521 70.9527 44.6521H70.9595Z" fill="#F6D6DE"/>
<path d="M90.0137 75.0296C89.8782 75.0296 89.7494 74.9673 89.6749 74.8614L86.3275 70.005C86.2462 69.8867 86.2462 69.7311 86.3275 69.6128L89.6749 64.7564C89.824 64.5447 90.2034 64.5447 90.3525 64.7564L93.6999 69.6128C93.7812 69.7311 93.7812 69.8867 93.6999 70.005L90.3525 74.8614C90.278 74.9673 90.1492 75.0296 90.0137 75.0296ZM87.1407 69.8058L90.0137 73.9773L92.8867 69.8058L90.0137 65.6343L87.1407 69.8058Z" fill="#F6D6DE"/>
<path d="M98.1451 69.3886C97.9621 69.3886 97.7927 69.2703 97.752 69.096C97.7046 68.8968 97.8469 68.7038 98.057 68.6602C102.245 67.8445 106.236 66.3938 109.902 64.3579C110.091 64.252 110.335 64.3081 110.45 64.4824C110.566 64.6567 110.505 64.8809 110.315 64.9867C106.568 67.0663 102.495 68.5419 98.2196 69.3824C98.1925 69.3824 98.1654 69.3886 98.1383 69.3886L98.1451 69.3886ZM81.8893 69.3886C81.8893 69.3886 81.8351 69.3886 81.808 69.3824C77.5323 68.5481 73.4599 67.0663 69.7128 64.9867C69.523 64.8809 69.462 64.6567 69.5772 64.4824C69.6924 64.3081 69.9364 64.252 70.1261 64.3579C73.7987 66.3938 77.783 67.8445 81.9706 68.6602C82.1875 68.7038 82.323 68.8968 82.2756 69.096C82.2349 69.2703 82.0723 69.3886 81.8825 69.3886H81.8893ZM116.44 60.672C116.332 60.672 116.224 60.6346 116.149 60.5537C116 60.4043 116.007 60.1739 116.169 60.0369C119.971 56.8055 122.979 52.9889 125.114 48.6804C125.202 48.4936 125.439 48.4127 125.642 48.4998C125.846 48.5808 125.934 48.7987 125.839 48.9855C123.664 53.3811 120.587 57.2787 116.711 60.5786C116.637 60.6409 116.535 60.6782 116.44 60.6782L116.44 60.672ZM63.594 60.672C63.4991 60.672 63.3975 60.6409 63.3229 60.5724C59.4403 57.2787 56.3707 53.3749 54.1956 48.9792C54.1075 48.7924 54.1956 48.5745 54.3921 48.4936C54.5886 48.4064 54.8258 48.4936 54.9206 48.6742C57.0551 52.9827 60.0637 56.7993 63.865 60.0307C64.0277 60.1677 64.0344 60.398 63.8854 60.5475C63.804 60.6284 63.7024 60.6658 63.594 60.6658V60.672ZM127.275 44.8264C127.235 44.8264 127.201 44.8264 127.16 44.8077C126.95 44.7517 126.828 44.5462 126.896 44.347C127.343 42.9897 127.709 41.6012 127.973 40.219C128.014 40.0198 128.217 39.8828 128.434 39.9202C128.651 39.9575 128.793 40.1443 128.759 40.3435C128.488 41.7569 128.116 43.1702 127.655 44.5587C127.601 44.7143 127.445 44.8201 127.275 44.8201V44.8264ZM52.7523 44.8264C52.5829 44.8264 52.4203 44.7268 52.3728 44.5649C51.9121 43.1764 51.5462 41.7631 51.2751 40.3498C51.2345 40.1505 51.3835 39.9575 51.6004 39.9264C51.8172 39.889 52.0273 40.026 52.0611 40.2252C52.3254 41.6074 52.6913 42.9959 53.1385 44.3532C53.1995 44.5462 53.0843 44.7517 52.8743 44.8139C52.8336 44.8264 52.793 44.8326 52.7591 44.8326L52.7523 44.8264Z" fill="#F6D6DE"/>
</g>
<path d="M18.912 109V108.76H19.848C20.28 108.76 20.64 108.696 20.928 108.568C21.232 108.44 21.456 108.248 21.6 107.992C21.744 107.736 21.816 107.416 21.816 107.032V93.736C21.816 93.368 21.744 93.064 21.6 92.824C21.456 92.584 21.232 92.408 20.928 92.296C20.64 92.168 20.28 92.104 19.848 92.104H18.912V91.864H23.784L29.904 106.312L35.208 91.864H39.6V92.104H39.288C38.856 92.104 38.488 92.168 38.184 92.296C37.896 92.424 37.68 92.616 37.536 92.872C37.392 93.128 37.32 93.448 37.32 93.832V107.032C37.32 107.416 37.392 107.736 37.536 107.992C37.68 108.248 37.896 108.44 38.184 108.568C38.488 108.696 38.856 108.76 39.288 108.76H39.6V109H33.216V108.76H33.288C33.64 108.76 33.944 108.696 34.2 108.568C34.456 108.44 34.656 108.248 34.8 107.992C34.944 107.736 35.016 107.416 35.016 107.032V93.112L29.184 109H28.608L22.056 93.424V107.032C22.056 107.416 22.128 107.736 22.272 107.992C22.416 108.248 22.632 108.44 22.92 108.568C23.224 108.696 23.592 108.76 24.024 108.76H24.456V109H18.912ZM40.5234 109V108.76H41.2194C41.5714 108.76 41.8674 108.704 42.1074 108.592C42.3474 108.48 42.5554 108.288 42.7314 108.016C42.9074 107.744 43.0754 107.368 43.2354 106.888L48.4674 91.864H49.6914L55.7154 107.488C55.8434 107.808 55.9714 108.064 56.0994 108.256C56.2274 108.432 56.3714 108.56 56.5314 108.64C56.7074 108.72 56.9074 108.76 57.1314 108.76H57.4434V109H50.8434V108.76H51.3954C52.0034 108.76 52.4434 108.688 52.7154 108.544C52.9874 108.4 53.1234 108.144 53.1234 107.776C53.1234 107.68 53.1154 107.584 53.0994 107.488C53.0834 107.376 53.0594 107.256 53.0274 107.128C53.0114 107 52.9714 106.864 52.9074 106.72L51.4434 102.784H44.9394L43.6194 106.552C43.5714 106.68 43.5314 106.808 43.4994 106.936C43.4674 107.064 43.4434 107.184 43.4274 107.296C43.4114 107.392 43.4034 107.488 43.4034 107.584C43.4034 108.016 43.5954 108.32 43.9794 108.496C44.3634 108.672 44.9794 108.76 45.8274 108.76H46.3794V109H40.5234ZM45.0114 102.544H51.3474L49.5954 97.864C49.3874 97.32 49.1954 96.8 49.0194 96.304C48.8434 95.808 48.6754 95.336 48.5154 94.888C48.3714 94.424 48.2354 93.976 48.1074 93.544C47.9954 93.896 47.8914 94.224 47.7954 94.528C47.6994 94.816 47.6034 95.104 47.5074 95.392C47.4114 95.68 47.2994 95.992 47.1714 96.328C47.0594 96.648 46.9314 97.024 46.7874 97.456L45.0114 102.544ZM58.3573 109V108.76H58.6693C59.1013 108.76 59.4613 108.696 59.7493 108.568C60.0533 108.44 60.2773 108.248 60.4213 107.992C60.5653 107.736 60.6373 107.416 60.6373 107.032V93.736C60.6373 93.368 60.5653 93.064 60.4213 92.824C60.2773 92.584 60.0533 92.408 59.7493 92.296C59.4613 92.168 59.1013 92.104 58.6693 92.104H58.3573V91.864H65.3413V92.104H65.0293C64.5973 92.104 64.2293 92.168 63.9253 92.296C63.6373 92.424 63.4213 92.616 63.2773 92.872C63.1333 93.128 63.0613 93.448 63.0613 93.832V107.032C63.0613 107.416 63.1333 107.736 63.2773 107.992C63.4213 108.248 63.6373 108.44 63.9253 108.568C64.2293 108.696 64.5973 108.76 65.0293 108.76H65.3413V109H58.3573ZM67.1698 109V108.76H67.4818C67.9138 108.76 68.2738 108.696 68.5618 108.568C68.8658 108.44 69.0898 108.248 69.2338 107.992C69.3778 107.736 69.4498 107.416 69.4498 107.032V93.736C69.4498 93.368 69.3778 93.064 69.2338 92.824C69.0898 92.584 68.8658 92.408 68.5618 92.296C68.2738 92.168 67.9138 92.104 67.4818 92.104H67.1698V91.864H74.1538V92.104H73.8418C73.4098 92.104 73.0418 92.168 72.7378 92.296C72.4498 92.424 72.2338 92.616 72.0898 92.872C71.9458 93.128 71.8738 93.448 71.8738 93.832V107.032C71.8738 107.416 71.9458 107.736 72.0898 107.992C72.2338 108.248 72.4498 108.44 72.7378 108.568C73.0418 108.696 73.4098 108.76 73.8418 108.76H74.1538V109H67.1698ZM75.0703 109V108.76H75.7663C76.1183 108.76 76.4143 108.704 76.6543 108.592C76.8943 108.48 77.1023 108.288 77.2783 108.016C77.4543 107.744 77.6223 107.368 77.7823 106.888L83.0143 91.864H84.2383L90.2623 107.488C90.3903 107.808 90.5183 108.064 90.6463 108.256C90.7743 108.432 90.9183 108.56 91.0783 108.64C91.2543 108.72 91.4543 108.76 91.6783 108.76H91.9903V109H85.3903V108.76H85.9423C86.5503 108.76 86.9903 108.688 87.2623 108.544C87.5343 108.4 87.6703 108.144 87.6703 107.776C87.6703 107.68 87.6623 107.584 87.6463 107.488C87.6303 107.376 87.6063 107.256 87.5743 107.128C87.5583 107 87.5183 106.864 87.4543 106.72L85.9903 102.784H79.4863L78.1663 106.552C78.1183 106.68 78.0783 106.808 78.0463 106.936C78.0143 107.064 77.9903 107.184 77.9743 107.296C77.9583 107.392 77.9503 107.488 77.9503 107.584C77.9503 108.016 78.1423 108.32 78.5263 108.496C78.9103 108.672 79.5263 108.76 80.3743 108.76H80.9263V109H75.0703ZM79.5583 102.544H85.8943L84.1423 97.864C83.9343 97.32 83.7423 96.8 83.5663 96.304C83.3903 95.808 83.2223 95.336 83.0623 94.888C82.9183 94.424 82.7823 93.976 82.6543 93.544C82.5423 93.896 82.4383 94.224 82.3423 94.528C82.2463 94.816 82.1503 95.104 82.0543 95.392C81.9583 95.68 81.8463 95.992 81.7183 96.328C81.6063 96.648 81.4783 97.024 81.3343 97.456L79.5583 102.544ZM101.223 109V108.76H101.535C101.967 108.76 102.327 108.696 102.615 108.568C102.919 108.44 103.143 108.248 103.287 107.992C103.431 107.736 103.503 107.416 103.503 107.032V92.104H101.535C100.735 92.104 100.095 92.2 99.6148 92.392C99.1348 92.584 98.7828 92.912 98.5588 93.376C98.3348 93.84 98.1988 94.472 98.1508 95.272L98.1028 96.064H97.8628L98.0068 91.864H111.471L111.615 96.064H111.375L111.327 95.272C111.279 94.472 111.143 93.84 110.919 93.376C110.695 92.912 110.343 92.584 109.863 92.392C109.399 92.2 108.759 92.104 107.943 92.104H105.927V107.032C105.927 107.416 105.999 107.736 106.143 107.992C106.287 108.248 106.503 108.44 106.791 108.568C107.095 108.696 107.463 108.76 107.895 108.76H108.207V109H101.223ZM110.672 109V108.76H111.368C111.72 108.76 112.016 108.704 112.256 108.592C112.496 108.48 112.704 108.288 112.88 108.016C113.056 107.744 113.224 107.368 113.384 106.888L118.616 91.864H119.84L125.864 107.488C125.992 107.808 126.12 108.064 126.248 108.256C126.376 108.432 126.52 108.56 126.68 108.64C126.856 108.72 127.056 108.76 127.28 108.76H127.592V109H120.992V108.76H121.544C122.152 108.76 122.592 108.688 122.864 108.544C123.136 108.4 123.272 108.144 123.272 107.776C123.272 107.68 123.264 107.584 123.248 107.488C123.232 107.376 123.208 107.256 123.176 107.128C123.16 107 123.12 106.864 123.056 106.72L121.592 102.784H115.088L113.768 106.552C113.72 106.68 113.68 106.808 113.648 106.936C113.616 107.064 113.592 107.184 113.576 107.296C113.56 107.392 113.552 107.488 113.552 107.584C113.552 108.016 113.744 108.32 114.128 108.496C114.512 108.672 115.128 108.76 115.976 108.76H116.528V109H110.672ZM115.16 102.544H121.496L119.744 97.864C119.536 97.32 119.344 96.8 119.168 96.304C118.992 95.808 118.824 95.336 118.664 94.888C118.52 94.424 118.384 93.976 118.256 93.544C118.144 93.896 118.04 94.224 117.944 94.528C117.848 94.816 117.752 95.104 117.656 95.392C117.56 95.68 117.448 95.992 117.32 96.328C117.208 96.648 117.08 97.024 116.936 97.456L115.16 102.544ZM128.506 109V108.76H128.818C129.25 108.76 129.61 108.696 129.898 108.568C130.202 108.44 130.426 108.248 130.57 107.992C130.714 107.736 130.786 107.416 130.786 107.032V93.736C130.786 93.368 130.714 93.064 130.57 92.824C130.426 92.584 130.202 92.408 129.898 92.296C129.61 92.168 129.25 92.104 128.818 92.104H128.506V91.864H134.962C136.354 91.864 137.506 92.04 138.418 92.392C139.33 92.728 140.01 93.232 140.458 93.904C140.906 94.576 141.13 95.392 141.13 96.352C141.13 97.28 140.938 98.048 140.554 98.656C140.186 99.248 139.706 99.712 139.114 100.048C138.538 100.384 137.938 100.64 137.314 100.816L140.698 106.096C141.034 106.608 141.322 107.04 141.562 107.392C141.818 107.728 142.05 108 142.258 108.208C142.466 108.4 142.658 108.544 142.834 108.64C143.026 108.72 143.218 108.76 143.41 108.76H143.482V109H143.146C142.394 109 141.77 108.976 141.274 108.928C140.794 108.864 140.394 108.76 140.074 108.616C139.754 108.472 139.466 108.264 139.21 107.992C138.97 107.704 138.706 107.336 138.418 106.888L134.722 101.008H133.21V107.032C133.21 107.416 133.282 107.736 133.426 107.992C133.57 108.248 133.786 108.44 134.074 108.568C134.378 108.696 134.746 108.76 135.178 108.76H135.49V109H128.506ZM134.89 100.768C135.786 100.768 136.498 100.632 137.026 100.36C137.57 100.072 137.962 99.616 138.202 98.992C138.442 98.368 138.562 97.544 138.562 96.52C138.562 95.464 138.434 94.616 138.178 93.976C137.938 93.32 137.546 92.848 137.002 92.56C136.458 92.256 135.738 92.104 134.842 92.104H133.21V100.768H134.89ZM151.779 109.24C150.083 109.24 148.675 108.872 147.555 108.136C146.435 107.4 145.595 106.368 145.035 105.04C144.491 103.712 144.219 102.16 144.219 100.384C144.219 98.608 144.491 97.064 145.035 95.752C145.595 94.44 146.435 93.424 147.555 92.704C148.691 91.968 150.107 91.6 151.803 91.6C153.419 91.6 154.779 91.968 155.883 92.704C157.003 93.424 157.851 94.448 158.427 95.776C159.019 97.088 159.315 98.632 159.315 100.408C159.315 102.184 159.019 103.736 158.427 105.064C157.851 106.376 157.003 107.4 155.883 108.136C154.763 108.872 153.395 109.24 151.779 109.24ZM151.779 109C152.627 109 153.355 108.84 153.963 108.52C154.587 108.184 155.091 107.672 155.475 106.984C155.875 106.28 156.171 105.384 156.363 104.296C156.555 103.208 156.651 101.912 156.651 100.408C156.651 98.904 156.555 97.616 156.363 96.544C156.171 95.456 155.875 94.568 155.475 93.88C155.091 93.176 154.595 92.664 153.987 92.344C153.379 92.008 152.651 91.84 151.803 91.84C150.939 91.84 150.195 92.008 149.571 92.344C148.963 92.664 148.459 93.176 148.059 93.88C147.659 94.568 147.363 95.456 147.171 96.544C146.979 97.616 146.883 98.904 146.883 100.408C146.883 101.912 146.979 103.208 147.171 104.296C147.363 105.384 147.651 106.28 148.035 106.984C148.435 107.672 148.939 108.184 149.547 108.52C150.171 108.84 150.915 109 151.779 109Z" fill="#F6D6DE"/>
<path d="M0 80.8297C0 80.6194 0.115017 80.5143 0.34505 80.5143H57.3296C57.5597 80.5143 57.6747 80.6194 57.6747 80.8297C57.6747 81.04 57.5597 81.1452 57.3296 81.1452H0.34505C0.115017 81.1452 0 81.04 0 80.8297Z" fill="#F6D6DE"/>
<path d="M32.957 117.685C32.957 117.474 33.0715 117.369 33.3003 117.369H146.216C146.445 117.369 146.559 117.474 146.559 117.685C146.559 117.895 146.445 118 146.216 118H33.3003C33.0715 118 32.957 117.895 32.957 117.685Z" fill="#F6D6DE"/>
<path d="M122.325 80.8297C122.325 80.6194 122.44 80.5143 122.67 80.5143H179.655C179.885 80.5143 180 80.6194 180 80.8297C180 81.04 179.885 81.1452 179.655 81.1452H122.67C122.44 81.1452 122.325 81.04 122.325 80.8297Z" fill="#F6D6DE"/>
</svg>
