<svg width="150" height="100" viewBox="0 0 150 100" fill="none" xmlns="http://www.w3.org/2000/svg">
<mask id="mask0_14_248" style="mask-type:luminance" maskUnits="userSpaceOnUse" x="39" y="0" width="72" height="68">
<path fill-rule="evenodd" clip-rule="evenodd" d="M39.2508 0H110.772V67.3201H39.2508V0Z" fill="white"/>
</mask>
<g mask="url(#mask0_14_248)">
<path d="M75.0114 67.3202C55.2931 67.3202 39.2508 52.2202 39.2508 33.6601C39.2508 25.8152 42.1815 18.1775 47.5007 12.1555C47.608 12.0386 47.7886 12.0067 47.9298 12.0864C48.071 12.1662 48.1274 12.3309 48.0653 12.4744C46.6028 15.8016 45.8631 19.3255 45.8631 22.9557C45.8631 38.0822 58.9409 50.3918 75.0114 50.3918C91.082 50.3918 104.16 38.0822 104.16 22.9557C104.16 19.3308 103.42 15.8016 101.958 12.4744C101.895 12.3309 101.958 12.1662 102.093 12.0864C102.234 12.0067 102.415 12.0333 102.522 12.1555C107.841 18.1775 110.772 25.8152 110.772 33.6601C110.772 52.2202 94.7297 67.3202 75.0114 67.3202ZM46.6988 14.1434C42.3113 19.7826 39.9171 26.639 39.9171 33.6601C39.9171 51.8747 55.6602 66.693 75.0114 66.693C94.3627 66.693 110.106 51.8747 110.106 33.6601C110.106 26.6337 107.712 19.7773 103.324 14.1434C104.318 16.9763 104.826 19.9314 104.826 22.9557C104.826 38.433 91.449 51.019 75.0114 51.019C58.5739 51.019 45.1968 38.4277 45.1968 22.9557C45.1968 19.9314 45.6994 16.9763 46.6988 14.1434Z" fill="#493508"/>
<path d="M75.0114 31.5924C67.3488 31.5924 60.0646 28.1217 55.5133 22.3071C55.4286 22.1954 55.4286 22.0466 55.5133 21.935C60.0646 16.1204 67.3545 12.6497 75.0114 12.6497C82.6683 12.6497 89.9582 16.1204 94.5095 21.935C94.5942 22.0466 94.5942 22.1954 94.5095 22.3071C89.9582 28.1217 82.6683 31.5924 75.0114 31.5924ZM56.1966 22.121C60.6292 27.6646 67.6425 30.9652 75.0114 30.9652C82.3804 30.9652 89.3936 27.6646 93.8262 22.121C89.3936 16.5775 82.3747 13.2768 75.0114 13.2768C67.6481 13.2768 60.6292 16.5775 56.1966 22.121Z" fill="#493508"/>
<path d="M75.0114 31.5924C69.4664 31.5924 64.949 27.3457 64.949 22.121C64.949 16.8964 69.4607 12.6497 75.0114 12.6497C80.5622 12.6497 85.0739 16.8964 85.0739 22.121C85.0739 27.3457 80.5622 31.5924 75.0114 31.5924ZM75.0114 13.2821C69.8334 13.2821 65.6153 17.2472 65.6153 22.1264C65.6153 27.0055 69.8278 30.9706 75.0114 30.9706C80.1951 30.9706 84.4076 27.0055 84.4076 22.1264C84.4076 17.2472 80.1951 13.2821 75.0114 13.2821Z" fill="#493508"/>
<path d="M75.0115 25.4059C73.0916 25.4059 71.5274 23.9336 71.5274 22.1265C71.5274 20.3194 73.0916 18.8472 75.0115 18.8472C76.9313 18.8472 78.4955 20.3194 78.4955 22.1265C78.4955 23.9336 76.9313 25.4059 75.0115 25.4059ZM75.0115 19.469C73.4586 19.469 72.1937 20.6596 72.1937 22.1212C72.1937 23.5829 73.4586 24.7734 75.0115 24.7734C76.5643 24.7734 77.8292 23.5829 77.8292 22.1212C77.8292 20.6596 76.5643 19.469 75.0115 19.469Z" fill="#493508"/>
<path d="M75.0114 35.4407C68.5347 35.4407 62.2047 33.3307 57.1904 29.4932C57.0493 29.3816 57.0267 29.1849 57.1396 29.0521C57.2525 28.9192 57.4671 28.8979 57.6083 29.0042C62.5096 32.746 68.6871 34.8082 75.0114 34.8082C81.3357 34.8082 87.5132 32.746 92.4146 29.0042C92.5558 28.8926 92.7647 28.9139 92.8833 29.0521C92.9962 29.1849 92.9793 29.3816 92.8324 29.4932C87.8182 33.3253 81.4882 35.4407 75.0114 35.4407ZM92.6235 15.3127C92.5501 15.3127 92.4767 15.2915 92.4146 15.2436C87.5132 11.5018 81.3357 9.43962 75.0114 9.43962C68.6871 9.43962 62.5096 11.5018 57.6083 15.2436C57.4671 15.3552 57.2582 15.334 57.1396 15.1958C57.0267 15.0629 57.0436 14.8663 57.1904 14.7546C62.2047 10.9225 68.5347 8.80713 75.0114 8.80713C81.4882 8.80713 87.8182 10.9172 92.8325 14.7546C92.9736 14.8663 92.9962 15.0629 92.8833 15.1958C92.8155 15.2702 92.7195 15.3127 92.6235 15.3127Z" fill="#493508"/>
<path d="M89.467 8.82826C89.3823 8.82826 89.2976 8.79637 89.2299 8.73791C89.1 8.61566 89.1 8.419 89.2299 8.29676L90.6528 6.95737C90.7827 6.83512 90.9916 6.83512 91.1215 6.95737C91.2514 7.07962 91.2514 7.27627 91.1215 7.39852L89.6985 8.73791C89.6308 8.80168 89.5461 8.82826 89.4614 8.82826H89.467ZM60.5559 8.82826C60.4712 8.82826 60.3865 8.79637 60.3187 8.73791L58.8957 7.39852C58.7659 7.27627 58.7659 7.07962 58.8957 6.95737C59.0256 6.83512 59.2345 6.83512 59.3644 6.95737L60.7874 8.29676C60.9173 8.419 60.9173 8.61566 60.7874 8.73791C60.7196 8.80168 60.6349 8.82826 60.5502 8.82826H60.5559ZM65.508 6.94143C65.3951 6.94143 65.2822 6.88296 65.2201 6.78729L63.3002 3.66205C63.2098 3.51323 63.2607 3.32189 63.4244 3.23154C63.5825 3.1465 63.7858 3.19433 63.8818 3.34847L65.8017 6.4737C65.892 6.62252 65.8412 6.81386 65.6774 6.90422C65.6266 6.9308 65.5702 6.94674 65.5137 6.94674L65.508 6.94143ZM84.5149 6.94143C84.4584 6.94143 84.4019 6.92548 84.3511 6.89891C84.193 6.81386 84.1365 6.62252 84.2269 6.46839L86.1468 3.34315C86.2371 3.19433 86.4404 3.14118 86.6041 3.22622C86.7623 3.31126 86.8187 3.5026 86.7284 3.65674L84.8085 6.78197C84.7464 6.88296 84.6334 6.93611 84.5205 6.93611L84.5149 6.94143ZM79.7152 5.91563C79.6869 5.91563 79.6587 5.91563 79.6305 5.905C79.4554 5.86248 79.3481 5.68708 79.3933 5.52231L80.6638 1.05238C80.709 0.88761 80.8953 0.786624 81.0704 0.829144C81.2454 0.871664 81.3527 1.04706 81.3075 1.21183L80.037 5.68176C79.9975 5.81995 79.862 5.91563 79.7152 5.91563ZM70.3077 5.91563C70.1609 5.91563 70.0254 5.82527 69.9859 5.68176L68.7154 1.21183C68.6702 1.04706 68.7718 0.871664 68.9525 0.829144C69.1276 0.786624 69.3139 0.882295 69.3591 1.05238L70.6296 5.52231C70.6748 5.68708 70.5731 5.86247 70.3924 5.90499C70.3642 5.91031 70.336 5.91563 70.3077 5.91563ZM75.0115 5.59141C74.8251 5.59141 74.6783 5.45322 74.6783 5.27782V0.313587C74.6783 0.138191 74.8251 0 75.0115 0C75.1978 0 75.3446 0.138191 75.3446 0.313587V5.27782C75.3446 5.45322 75.1978 5.59141 75.0115 5.59141Z" fill="#493508"/>
<path d="M75.0115 44.2476C74.8251 44.2476 74.6783 44.1094 74.6783 43.934V38.9698C74.6783 38.7944 74.8251 38.6562 75.0115 38.6562C75.1978 38.6562 75.3446 38.7944 75.3446 38.9698V43.934C75.3446 44.1094 75.1978 44.2476 75.0115 44.2476ZM69.0372 43.4291C69.009 43.4291 68.9808 43.4291 68.9525 43.4185C68.7775 43.376 68.6702 43.2006 68.7154 43.0358L69.9859 38.5659C70.0311 38.4011 70.2174 38.3001 70.3924 38.3426C70.5675 38.3851 70.6748 38.5605 70.6296 38.7253L69.3591 43.1952C69.3196 43.3334 69.184 43.4291 69.0372 43.4291ZM80.9913 43.4291C80.8445 43.4291 80.709 43.3387 80.6695 43.1952L79.3989 38.7253C79.3538 38.5605 79.4554 38.3851 79.6361 38.3426C79.8168 38.3001 79.9975 38.3958 80.0427 38.5659L81.3132 43.0358C81.3583 43.2006 81.2567 43.376 81.076 43.4185C81.0478 43.4238 81.0195 43.4291 80.9913 43.4291ZM63.5882 41.0586C63.5317 41.0586 63.4752 41.0427 63.4244 41.0161C63.2663 40.931 63.2098 40.7397 63.3002 40.5856L65.2201 37.4603C65.3104 37.3115 65.5137 37.2584 65.6774 37.3434C65.8356 37.4284 65.892 37.6198 65.8017 37.7739L63.8818 40.8991C63.8197 41.0001 63.7067 41.0533 63.5938 41.0533L63.5882 41.0586ZM86.4347 41.0586C86.3218 41.0586 86.2089 41.0001 86.1468 40.9045L84.2269 37.7792C84.1365 37.6304 84.1874 37.4391 84.3511 37.3487C84.5092 37.2637 84.7125 37.3115 84.8085 37.4656L86.7284 40.5909C86.8187 40.7397 86.7679 40.931 86.6041 41.0214C86.5533 41.048 86.4969 41.0639 86.4404 41.0639L86.4347 41.0586ZM90.8956 37.3859C90.8109 37.3859 90.7262 37.354 90.6585 37.2956L89.2355 35.9562C89.1056 35.8339 89.1056 35.6373 89.2355 35.515C89.3654 35.3928 89.5743 35.3928 89.7042 35.515L91.1272 36.8544C91.257 36.9767 91.257 37.1733 91.1272 37.2956C91.0594 37.3593 90.9747 37.3859 90.89 37.3859H90.8956ZM59.1329 37.3859C59.0482 37.3859 58.9635 37.354 58.8957 37.2956C58.7659 37.1733 58.7659 36.9767 58.8957 36.8544L60.3187 35.515C60.4486 35.3928 60.6575 35.3928 60.7874 35.515C60.9173 35.6373 60.9173 35.8339 60.7874 35.9562L59.3644 37.2956C59.2967 37.3593 59.212 37.3859 59.1273 37.3859H59.1329Z" fill="#493508"/>
<path d="M75.0114 63.3179C74.8985 63.3179 74.7912 63.2648 74.7291 63.1744L71.9396 59.0287C71.8719 58.9277 71.8719 58.7948 71.9396 58.6939L74.7291 54.5481C74.8533 54.3674 75.1695 54.3674 75.2938 54.5481L78.0832 58.6939C78.151 58.7948 78.151 58.9277 78.0832 59.0287L75.2938 63.1744C75.2316 63.2648 75.1244 63.3179 75.0114 63.3179ZM72.6172 58.8586L75.0114 62.4197L77.4056 58.8586L75.0114 55.2976L72.6172 58.8586Z" fill="#493508"/>
<path d="M81.7876 58.5026C81.6351 58.5026 81.4939 58.4016 81.46 58.2528C81.4205 58.0827 81.5391 57.9179 81.7141 57.8807C85.2038 57.1845 88.5297 55.9461 91.5846 54.208C91.7427 54.1177 91.946 54.1655 92.042 54.3143C92.138 54.4632 92.0872 54.6545 91.929 54.7449C88.8064 56.5201 85.4127 57.7797 81.8497 58.4973C81.8271 58.4973 81.8045 58.5026 81.7819 58.5026L81.7876 58.5026ZM68.2411 58.5026C68.2411 58.5026 68.1959 58.5026 68.1733 58.4973C64.6103 57.7851 61.2166 56.5201 58.094 54.7449C57.9359 54.6545 57.885 54.4632 57.981 54.3143C58.077 54.1655 58.2803 54.1177 58.4384 54.208C61.4989 55.9461 64.8192 57.1845 68.3089 57.8807C68.4896 57.9179 68.6025 58.0827 68.563 58.2528C68.5291 58.4016 68.3936 58.5026 68.2355 58.5026H68.2411ZM97.0337 51.0615C96.9433 51.0615 96.853 51.0297 96.7909 50.9606C96.6666 50.833 96.6723 50.6363 96.8078 50.5194C99.9756 47.7609 102.483 44.5028 104.261 40.8248C104.335 40.6654 104.532 40.5963 104.702 40.6707C104.871 40.7398 104.945 40.9258 104.866 41.0852C103.053 44.8376 100.489 48.1649 97.2595 50.9818C97.1974 51.035 97.1127 51.0669 97.0337 51.0669L97.0337 51.0615ZM52.995 51.0615C52.9159 51.0615 52.8312 51.035 52.7691 50.9765C49.5336 48.1649 46.9756 44.8323 45.163 41.0799C45.0896 40.9205 45.163 40.7344 45.3268 40.6654C45.4905 40.5909 45.6881 40.6654 45.7672 40.8195C47.5459 44.4975 50.0531 47.7556 53.2209 50.5141C53.3564 50.631 53.362 50.8277 53.2378 50.9552C53.17 51.0243 53.0853 51.0562 52.995 51.0562V51.0615ZM106.063 37.5348C106.029 37.5348 106.001 37.5348 105.967 37.5189C105.792 37.471 105.69 37.2956 105.747 37.1255C106.119 35.9669 106.424 34.7816 106.644 33.6017C106.678 33.4316 106.848 33.3147 107.028 33.3466C107.209 33.3784 107.328 33.5379 107.299 33.708C107.074 34.9145 106.763 36.121 106.379 37.3063C106.334 37.4391 106.204 37.5295 106.063 37.5295V37.5348ZM43.9603 37.5348C43.8191 37.5348 43.6836 37.4498 43.644 37.3116C43.2601 36.1263 42.9551 34.9198 42.7293 33.7133C42.6954 33.5432 42.8196 33.3784 43.0003 33.3519C43.181 33.32 43.3561 33.4369 43.3843 33.607C43.6045 34.7869 43.9094 35.9722 44.2821 37.1309C44.3329 37.2956 44.2369 37.471 44.0619 37.5242C44.028 37.5348 43.9941 37.5401 43.9659 37.5401L43.9603 37.5348Z" fill="#493508"/>
</g>
<path d="M20.6718 91V90.82H21.3738C21.6978 90.82 21.9678 90.772 22.1838 90.676C22.4118 90.58 22.5798 90.436 22.6878 90.244C22.7958 90.052 22.8498 89.812 22.8498 89.524V79.552C22.8498 79.276 22.7958 79.048 22.6878 78.868C22.5798 78.688 22.4118 78.556 22.1838 78.472C21.9678 78.376 21.6978 78.328 21.3738 78.328H20.6718V78.148H24.3258L28.9158 88.984L32.8938 78.148H36.1878V78.328H35.9538C35.6298 78.328 35.3538 78.376 35.1258 78.472C34.9098 78.568 34.7478 78.712 34.6398 78.904C34.5318 79.096 34.4778 79.336 34.4778 79.624V89.524C34.4778 89.812 34.5318 90.052 34.6398 90.244C34.7478 90.436 34.9098 90.58 35.1258 90.676C35.3538 90.772 35.6298 90.82 35.9538 90.82H36.1878V91H31.3998V90.82H31.4538C31.7178 90.82 31.9458 90.772 32.1378 90.676C32.3298 90.58 32.4798 90.436 32.5878 90.244C32.6958 90.052 32.7498 89.812 32.7498 89.524V79.084L28.3758 91H27.9438L23.0298 79.318V89.524C23.0298 89.812 23.0838 90.052 23.1918 90.244C23.2998 90.436 23.4618 90.58 23.6778 90.676C23.9058 90.772 24.1818 90.82 24.5058 90.82H24.8298V91H20.6718ZM36.8804 91V90.82H37.4024C37.6664 90.82 37.8884 90.778 38.0684 90.694C38.2484 90.61 38.4044 90.466 38.5364 90.262C38.6684 90.058 38.7944 89.776 38.9144 89.416L42.8384 78.148H43.7564L48.2744 89.866C48.3704 90.106 48.4664 90.298 48.5624 90.442C48.6584 90.574 48.7664 90.67 48.8864 90.73C49.0184 90.79 49.1684 90.82 49.3364 90.82H49.5704V91H44.6204V90.82H45.0344C45.4904 90.82 45.8204 90.766 46.0244 90.658C46.2284 90.55 46.3304 90.358 46.3304 90.082C46.3304 90.01 46.3244 89.938 46.3124 89.866C46.3004 89.782 46.2824 89.692 46.2584 89.596C46.2464 89.5 46.2164 89.398 46.1684 89.29L45.0704 86.338H40.1924L39.2024 89.164C39.1664 89.26 39.1364 89.356 39.1124 89.452C39.0884 89.548 39.0704 89.638 39.0584 89.722C39.0464 89.794 39.0404 89.866 39.0404 89.938C39.0404 90.262 39.1844 90.49 39.4724 90.622C39.7604 90.754 40.2224 90.82 40.8584 90.82H41.2724V91H36.8804ZM40.2464 86.158H44.9984L43.6844 82.648C43.5284 82.24 43.3844 81.85 43.2524 81.478C43.1204 81.106 42.9944 80.752 42.8744 80.416C42.7664 80.068 42.6644 79.732 42.5684 79.408C42.4844 79.672 42.4064 79.918 42.3344 80.146C42.2624 80.362 42.1904 80.578 42.1184 80.794C42.0464 81.01 41.9624 81.244 41.8664 81.496C41.7824 81.736 41.6864 82.018 41.5784 82.342L40.2464 86.158ZM50.2558 91V90.82H50.4898C50.8138 90.82 51.0838 90.772 51.2998 90.676C51.5278 90.58 51.6958 90.436 51.8038 90.244C51.9118 90.052 51.9658 89.812 51.9658 89.524V79.552C51.9658 79.276 51.9118 79.048 51.8038 78.868C51.6958 78.688 51.5278 78.556 51.2998 78.472C51.0838 78.376 50.8138 78.328 50.4898 78.328H50.2558V78.148H55.4938V78.328H55.2598C54.9358 78.328 54.6598 78.376 54.4318 78.472C54.2158 78.568 54.0538 78.712 53.9458 78.904C53.8378 79.096 53.7838 79.336 53.7838 79.624V89.524C53.7838 89.812 53.8378 90.052 53.9458 90.244C54.0538 90.436 54.2158 90.58 54.4318 90.676C54.6598 90.772 54.9358 90.82 55.2598 90.82H55.4938V91H50.2558ZM56.8652 91V90.82H57.0992C57.4232 90.82 57.6932 90.772 57.9092 90.676C58.1372 90.58 58.3052 90.436 58.4132 90.244C58.5212 90.052 58.5752 89.812 58.5752 89.524V79.552C58.5752 79.276 58.5212 79.048 58.4132 78.868C58.3052 78.688 58.1372 78.556 57.9092 78.472C57.6932 78.376 57.4232 78.328 57.0992 78.328H56.8652V78.148H62.1032V78.328H61.8692C61.5452 78.328 61.2692 78.376 61.0412 78.472C60.8252 78.568 60.6632 78.712 60.5552 78.904C60.4472 79.096 60.3932 79.336 60.3932 79.624V89.524C60.3932 89.812 60.4472 90.052 60.5552 90.244C60.6632 90.436 60.8252 90.58 61.0412 90.676C61.2692 90.772 61.5452 90.82 61.8692 90.82H62.1032V91H56.8652ZM62.7905 91V90.82H63.3125C63.5765 90.82 63.7985 90.778 63.9785 90.694C64.1585 90.61 64.3145 90.466 64.4465 90.262C64.5785 90.058 64.7045 89.776 64.8245 89.416L68.7485 78.148H69.6665L74.1845 89.866C74.2805 90.106 74.3765 90.298 74.4725 90.442C74.5685 90.574 74.6765 90.67 74.7965 90.73C74.9285 90.79 75.0785 90.82 75.2465 90.82H75.4805V91H70.5305V90.82H70.9445C71.4005 90.82 71.7305 90.766 71.9345 90.658C72.1385 90.55 72.2405 90.358 72.2405 90.082C72.2405 90.01 72.2345 89.938 72.2225 89.866C72.2105 89.782 72.1925 89.692 72.1685 89.596C72.1565 89.5 72.1265 89.398 72.0785 89.29L70.9805 86.338H66.1025L65.1125 89.164C65.0765 89.26 65.0465 89.356 65.0225 89.452C64.9985 89.548 64.9805 89.638 64.9685 89.722C64.9565 89.794 64.9505 89.866 64.9505 89.938C64.9505 90.262 65.0945 90.49 65.3825 90.622C65.6705 90.754 66.1325 90.82 66.7685 90.82H67.1825V91H62.7905ZM66.1565 86.158H70.9085L69.5945 82.648C69.4385 82.24 69.2945 81.85 69.1625 81.478C69.0305 81.106 68.9045 80.752 68.7845 80.416C68.6765 80.068 68.5745 79.732 68.4785 79.408C68.3945 79.672 68.3165 79.918 68.2445 80.146C68.1725 80.362 68.1005 80.578 68.0285 80.794C67.9565 81.01 67.8725 81.244 67.7765 81.496C67.6925 81.736 67.5965 82.018 67.4885 82.342L66.1565 86.158ZM82.4049 91V90.82H82.6389C82.9629 90.82 83.2329 90.772 83.4489 90.676C83.6769 90.58 83.8449 90.436 83.9529 90.244C84.0609 90.052 84.1149 89.812 84.1149 89.524V78.328H82.6389C82.0389 78.328 81.5589 78.4 81.1989 78.544C80.8389 78.688 80.5749 78.934 80.4069 79.282C80.2389 79.63 80.1369 80.104 80.1009 80.704L80.0649 81.298H79.8849L79.9929 78.148H90.0909L90.1989 81.298H90.0189L89.9829 80.704C89.9469 80.104 89.8449 79.63 89.6769 79.282C89.5089 78.934 89.2449 78.688 88.8849 78.544C88.5369 78.4 88.0569 78.328 87.4449 78.328H85.9329V89.524C85.9329 89.812 85.9869 90.052 86.0949 90.244C86.2029 90.436 86.3649 90.58 86.5809 90.676C86.8089 90.772 87.0849 90.82 87.4089 90.82H87.6429V91H82.4049ZM89.4917 91V90.82H90.0137C90.2777 90.82 90.4997 90.778 90.6797 90.694C90.8597 90.61 91.0157 90.466 91.1477 90.262C91.2797 90.058 91.4057 89.776 91.5257 89.416L95.4497 78.148H96.3677L100.886 89.866C100.982 90.106 101.078 90.298 101.174 90.442C101.27 90.574 101.378 90.67 101.498 90.73C101.63 90.79 101.78 90.82 101.948 90.82H102.182V91H97.2317V90.82H97.6457C98.1017 90.82 98.4317 90.766 98.6357 90.658C98.8397 90.55 98.9417 90.358 98.9417 90.082C98.9417 90.01 98.9357 89.938 98.9237 89.866C98.9117 89.782 98.8937 89.692 98.8697 89.596C98.8577 89.5 98.8277 89.398 98.7797 89.29L97.6817 86.338H92.8037L91.8137 89.164C91.7777 89.26 91.7477 89.356 91.7237 89.452C91.6997 89.548 91.6817 89.638 91.6697 89.722C91.6577 89.794 91.6517 89.866 91.6517 89.938C91.6517 90.262 91.7957 90.49 92.0837 90.622C92.3717 90.754 92.8337 90.82 93.4697 90.82H93.8837V91H89.4917ZM92.8577 86.158H97.6097L96.2957 82.648C96.1397 82.24 95.9957 81.85 95.8637 81.478C95.7317 81.106 95.6057 80.752 95.4857 80.416C95.3777 80.068 95.2757 79.732 95.1797 79.408C95.0957 79.672 95.0177 79.918 94.9457 80.146C94.8737 80.362 94.8017 80.578 94.7297 80.794C94.6577 81.01 94.5737 81.244 94.4777 81.496C94.3937 81.736 94.2977 82.018 94.1897 82.342L92.8577 86.158ZM102.867 91V90.82H103.101C103.425 90.82 103.695 90.772 103.911 90.676C104.139 90.58 104.307 90.436 104.415 90.244C104.523 90.052 104.577 89.812 104.577 89.524V79.552C104.577 79.276 104.523 79.048 104.415 78.868C104.307 78.688 104.139 78.556 103.911 78.472C103.695 78.376 103.425 78.328 103.101 78.328H102.867V78.148H107.709C108.753 78.148 109.617 78.28 110.301 78.544C110.985 78.796 111.495 79.174 111.831 79.678C112.167 80.182 112.335 80.794 112.335 81.514C112.335 82.21 112.191 82.786 111.903 83.242C111.627 83.686 111.267 84.034 110.823 84.286C110.391 84.538 109.941 84.73 109.473 84.862L112.011 88.822C112.263 89.206 112.479 89.53 112.659 89.794C112.851 90.046 113.025 90.25 113.181 90.406C113.337 90.55 113.481 90.658 113.613 90.73C113.757 90.79 113.901 90.82 114.045 90.82H114.099V91H113.847C113.283 91 112.815 90.982 112.443 90.946C112.083 90.898 111.783 90.82 111.543 90.712C111.303 90.604 111.087 90.448 110.895 90.244C110.715 90.028 110.517 89.752 110.301 89.416L107.529 85.006H106.395V89.524C106.395 89.812 106.449 90.052 106.557 90.244C106.665 90.436 106.827 90.58 107.043 90.676C107.271 90.772 107.547 90.82 107.871 90.82H108.105V91H102.867ZM107.655 84.826C108.327 84.826 108.861 84.724 109.257 84.52C109.665 84.304 109.959 83.962 110.139 83.494C110.319 83.026 110.409 82.408 110.409 81.64C110.409 80.848 110.313 80.212 110.121 79.732C109.941 79.24 109.647 78.886 109.239 78.67C108.831 78.442 108.291 78.328 107.619 78.328H106.395V84.826H107.655ZM120.322 91.18C119.05 91.18 117.994 90.904 117.154 90.352C116.314 89.8 115.684 89.026 115.264 88.03C114.856 87.034 114.652 85.87 114.652 84.538C114.652 83.206 114.856 82.048 115.264 81.064C115.684 80.08 116.314 79.318 117.154 78.778C118.006 78.226 119.068 77.95 120.34 77.95C121.552 77.95 122.572 78.226 123.4 78.778C124.24 79.318 124.876 80.086 125.308 81.082C125.752 82.066 125.974 83.224 125.974 84.556C125.974 85.888 125.752 87.052 125.308 88.048C124.876 89.032 124.24 89.8 123.4 90.352C122.56 90.904 121.534 91.18 120.322 91.18ZM120.322 91C120.958 91 121.504 90.88 121.96 90.64C122.428 90.388 122.806 90.004 123.094 89.488C123.394 88.96 123.616 88.288 123.76 87.472C123.904 86.656 123.976 85.684 123.976 84.556C123.976 83.428 123.904 82.462 123.76 81.658C123.616 80.842 123.394 80.176 123.094 79.66C122.806 79.132 122.434 78.748 121.978 78.508C121.522 78.256 120.976 78.13 120.34 78.13C119.692 78.13 119.134 78.256 118.666 78.508C118.21 78.748 117.832 79.132 117.532 79.66C117.232 80.176 117.01 80.842 116.866 81.658C116.722 82.462 116.65 83.428 116.65 84.556C116.65 85.684 116.722 86.656 116.866 87.472C117.01 88.288 117.226 88.96 117.514 89.488C117.814 90.004 118.192 90.388 118.648 90.64C119.116 90.88 119.674 91 120.322 91Z" fill="#493508"/>
<path d="M0 68.2693C0 68.0898 0.0958473 68 0.287542 68H47.7747C47.9664 68 48.0622 68.0898 48.0622 68.2693C48.0622 68.4488 47.9664 68.5386 47.7747 68.5386H0.287542C0.0958473 68.5386 0 68.4488 0 68.2693Z" fill="#493508"/>
<path d="M27.4642 99.7307C27.4642 99.5512 27.5595 99.4614 27.7503 99.4614H121.846C122.037 99.4614 122.132 99.5512 122.132 99.7307C122.132 99.9102 122.037 100 121.846 100H27.7503C27.5595 100 27.4642 99.9102 27.4642 99.7307Z" fill="#493508"/>
<path d="M101.938 68.2693C101.938 68.0898 102.034 68 102.225 68H149.712C149.904 68 150 68.0898 150 68.2693C150 68.4488 149.904 68.5386 149.712 68.5386H102.225C102.034 68.5386 101.938 68.4488 101.938 68.2693Z" fill="#493508"/>
</svg>
